<svg width="24" height="24" xmlns="http://www.w3.org/2000/svg" xmlns:xlink="http://www.w3.org/1999/xlink" xml:space="preserve" overflow="hidden"><g><path d="M7.9 21.3C5.4 21.3 2.9 20.6 0.7 19.2 0.5 19.1 0.4 18.8 0.5 18.6 0.6 18.4 0.8 18.2 1 18.3 2.8 18.5 4.7 18.1 6.3 17.3 4.8 16.8 3.5 15.6 3 14 2.9 13.8 3 13.6 3.1 13.5 3.2 13.4 3.3 13.4 3.4 13.3 2.2 12.4 1.4 10.9 1.4 9.4 1.4 9.2 1.5 9 1.6 8.9 1.8 8.9 2 8.9 2.1 9 2.2 9 2.2 9 2.3 9 1.7 8.2 1.4 7.3 1.4 6.2 1.4 5.3 1.6 4.5 2.1 3.7 2.2 3.6 2.3 3.5 2.5 3.5 2.7 3.5 2.8 3.6 2.9 3.7 5 6.2 8 7.8 11.2 8.1 11.2 7.9 11.2 7.8 11.2 7.6 11.2 4.9 13.4 2.7 16.2 2.7 17.5 2.7 18.7 3.2 19.7 4.1 20.6 3.9 21.4 3.6 22.2 3.1 22.4 3 22.6 3 22.8 3.1 23 3.2 23 3.4 23 3.6 22.8 4.1 22.6 4.6 22.3 5 22.5 4.9 22.7 4.8 23 4.7 23.2 4.6 23.4 4.7 23.6 4.8 23.7 5 23.8 5.2 23.6 5.4 23 6.3 22.3 7 21.4 7.7 21.4 7.8 21.4 7.9 21.4 8 21.3 14.6 16.3 21.3 7.9 21.3ZM3.1 19.3C4.6 19.9 6.3 20.3 8 20.3 15.7 20.3 20.3 14.1 20.3 8.2 20.3 8 20.3 7.8 20.3 7.6 20.3 7.4 20.4 7.3 20.5 7.2 20.9 6.9 21.2 6.6 21.5 6.3 21.2 6.4 20.8 6.4 20.5 6.5 20.3 6.5 20 6.4 20 6.2 19.9 6 20 5.7 20.2 5.6 20.6 5.4 21 5 21.3 4.7 20.8 4.9 20.2 5.1 19.7 5.2 19.5 5.2 19.4 5.2 19.2 5.1 18.4 4.3 17.4 3.9 16.3 3.9 14.1 3.9 12.3 5.7 12.3 7.8 12.3 8.1 12.3 8.4 12.4 8.7 12.4 8.9 12.4 9 12.3 9.1 12.2 9.2 12 9.3 11.9 9.3 8.3 9 5 7.4 2.7 4.9 2.5 5.3 2.4 5.8 2.4 6.2 2.4 7.5 3.1 8.7 4.2 9.5 4.4 9.6 4.5 9.9 4.4 10.1 4.3 10.3 4.1 10.5 3.9 10.4 3.4 10.4 2.9 10.3 2.4 10.1 2.8 11.7 4 13 5.6 13.3 5.8 13.3 6 13.5 6 13.8 6 14 5.9 14.2 5.6 14.3 5.2 14.4 4.7 14.5 4.2 14.5 4.9 15.7 6.2 16.5 7.6 16.5 7.8 16.5 8 16.6 8.1 16.8 8.2 17 8.1 17.2 7.9 17.4 6.5 18.5 4.9 19.1 3.1 19.3Z" fill="#FFFFFF"/></g></svg>