<?xml version="1.0" encoding="utf-8"?>
<!-- Generator: Adobe Illustrator 16.0.0, SVG Export Plug-In . SVG Version: 6.00 Build 0)  -->
<!DOCTYPE svg PUBLIC "-//W3C//DTD SVG 1.1//EN" "http://www.w3.org/Graphics/SVG/1.1/DTD/svg11.dtd">
<svg version="1.1" id="Layer_1" xmlns="http://www.w3.org/2000/svg" xmlns:xlink="http://www.w3.org/1999/xlink" x="0px" y="0px"
	 width="24px" height="24px" viewBox="0 0 24 24" enable-background="new 0 0 24 24" xml:space="preserve">
<g>
	<g>
		<path d="M7.9,21.3c-2.5,0-5-0.7-7.2-2.1c-0.2-0.1-0.3-0.4-0.2-0.6c0.1-0.2,0.3-0.4,0.5-0.3c1.8,0.2,3.7-0.2,5.3-1
			C4.8,16.8,3.5,15.6,3,14c-0.1-0.2,0-0.4,0.1-0.5c0.1-0.1,0.2-0.1,0.3-0.2c-1.2-0.9-2-2.4-2-3.9c0-0.2,0.1-0.4,0.2-0.5
			C1.8,8.9,2,8.9,2.1,9C2.2,9,2.2,9,2.3,9C1.7,8.2,1.4,7.3,1.4,6.2c0-0.9,0.2-1.7,0.7-2.5c0.1-0.1,0.2-0.2,0.4-0.2
			c0.2,0,0.3,0.1,0.4,0.2C5,6.2,8,7.8,11.2,8.1c0-0.2,0-0.3,0-0.5c0-2.7,2.2-4.9,5-4.9c1.3,0,2.5,0.5,3.5,1.4c0.9-0.2,1.7-0.5,2.5-1
			c0.2-0.1,0.4-0.1,0.6,0s0.2,0.3,0.2,0.5c-0.2,0.5-0.4,1-0.7,1.4c0.2-0.1,0.4-0.2,0.7-0.3c0.2-0.1,0.4,0,0.6,0.1
			c0.1,0.2,0.2,0.4,0,0.6c-0.6,0.9-1.3,1.6-2.2,2.3c0,0.1,0,0.2,0,0.3C21.3,14.6,16.3,21.3,7.9,21.3z M3.1,19.3c1.5,0.6,3.2,1,4.9,1
			c7.7,0,12.3-6.2,12.3-12.1c0-0.2,0-0.4,0-0.6c0-0.2,0.1-0.3,0.2-0.4c0.4-0.3,0.7-0.6,1-0.9c-0.3,0.1-0.7,0.1-1,0.2
			c-0.2,0-0.5-0.1-0.5-0.3c-0.1-0.2,0-0.5,0.2-0.6c0.4-0.2,0.8-0.6,1.1-0.9c-0.5,0.2-1.1,0.4-1.6,0.5c-0.2,0-0.3,0-0.5-0.1
			c-0.8-0.8-1.8-1.2-2.9-1.2c-2.2,0-4,1.8-4,3.9c0,0.3,0,0.6,0.1,0.9c0,0.2,0,0.3-0.1,0.4c-0.1,0.1-0.3,0.2-0.4,0.2
			C8.3,9,5,7.4,2.7,4.9C2.5,5.3,2.4,5.8,2.4,6.2c0,1.3,0.7,2.5,1.8,3.3c0.2,0.1,0.3,0.4,0.2,0.6s-0.3,0.4-0.5,0.3
			c-0.5,0-1-0.1-1.5-0.3C2.8,11.7,4,13,5.6,13.3c0.2,0,0.4,0.2,0.4,0.5c0,0.2-0.1,0.4-0.4,0.5c-0.4,0.1-0.9,0.2-1.4,0.2
			c0.7,1.2,2,2,3.4,2c0.2,0,0.4,0.1,0.5,0.3c0.1,0.2,0,0.4-0.2,0.6C6.5,18.5,4.9,19.1,3.1,19.3z"/>
	</g>
</g>
</svg>
